<?xml version="1.0" standalone="no"?>
<!DOCTYPE svg PUBLIC "-//W3C//DTD SVG 20010904//EN"
 "http://www.w3.org/TR/2001/REC-SVG-20010904/DTD/svg10.dtd">
<svg version="1.0" xmlns="http://www.w3.org/2000/svg"
 width="256.000000pt" height="256.000000pt" viewBox="0 0 256.000000 256.000000"
 preserveAspectRatio="xMidYMid meet">

<g transform="translate(0.000000,256.000000) scale(0.100000,-0.100000)"
fill="#000000" stroke="none">
<path d="M470 1820 l0 -50 220 0 220 0 0 50 0 50 -220 0 -220 0 0 -50z"/>
<path d="M1278 1443 l-98 -4 0 -254 0 -255 50 0 50 0 0 204 0 203 77 7 c42 3
96 6 120 6 l43 0 0 50 0 50 -72 -2 c-40 -1 -117 -4 -170 -5z"/>
<path d="M1966 785 c-9 -80 -41 -157 -83 -200 -64 -66 -179 -105 -309 -105
l-51 0 -6 -42 c-3 -23 -3 -46 0 -51 10 -17 203 0 270 23 161 56 261 186 279
364 l7 66 -50 0 -50 0 -7 -55z"/>
</g>
</svg>
